<?xml version="1.0" standalone="no"?>
<!DOCTYPE svg PUBLIC "-//W3C//DTD SVG 20010904//EN"
 "http://www.w3.org/TR/2001/REC-SVG-20010904/DTD/svg10.dtd">
<svg version="1.0" xmlns="http://www.w3.org/2000/svg"
 width="1138.000000pt" height="516.000000pt" viewBox="0 0 1138.000000 516.000000"
 preserveAspectRatio="xMidYMid meet">
<metadata>
Created by potrace 1.15, written by Peter Selinger 2001-2017
</metadata>
<g transform="translate(0.000000,516.000000) scale(0.100000,-0.100000)"
fill="#000000" stroke="none">
<path d="M2105 3846 c-5 -2 -44 -12 -85 -21 -280 -65 -532 -272 -657 -542
-108 -234 -116 -519 -22 -763 37 -97 112 -219 185 -298 l57 -64 -166 -166
c-92 -92 -167 -170 -167 -174 0 -15 148 -118 225 -156 158 -79 300 -108 488
-99 248 11 461 105 637 279 171 170 271 393 286 633 16 245 -70 511 -220 682
l-39 45 172 172 173 173 -64 55 c-120 104 -239 170 -385 214 -76 23 -110 27
-248 30 -88 2 -164 2 -170 0z m333 -82 c127 -26 286 -102 387 -185 l43 -36
-141 -141 c-78 -78 -146 -142 -150 -142 -4 0 -35 23 -69 51 -76 61 -233 140
-343 171 -69 20 -103 23 -250 23 -168 0 -213 -7 -351 -50 -10 -4 20 31 67 77
124 119 267 196 434 233 85 19 280 18 373 -1z m163 -636 c82 -95 156 -237 191
-363 32 -118 32 -347 0 -459 -28 -99 -78 -206 -130 -283 -39 -57 -43 -60 -114
-81 -124 -37 -186 -44 -333 -39 -153 5 -246 25 -363 77 -72 33 -217 126 -247
159 l-19 22 494 494 c272 272 496 495 498 495 2 0 13 -10 23 -22z"/>
<path d="M7858 3613 l-3 -238 -112 -3 -113 -3 0 -189 0 -190 115 0 115 0 0
-294 c0 -264 2 -300 20 -358 37 -120 112 -205 230 -262 62 -29 71 -31 218 -34
l152 -4 0 191 0 191 -43 0 c-86 0 -162 61 -187 149 -5 20 -10 123 -10 229 l0
192 120 0 120 0 0 190 0 189 -117 3 -118 3 -5 135 -5 134 -105 59 c-58 32
-142 79 -187 103 l-83 45 -2 -238z"/>
<path d="M8835 3834 c-45 -23 -66 -45 -86 -89 -47 -101 -6 -209 96 -256 153
-71 316 91 250 248 -20 48 -41 71 -87 94 -46 23 -131 25 -173 3z"/>
<path d="M9480 3489 c-98 -39 -142 -167 -91 -267 32 -63 90 -97 165 -97 102 0
179 67 192 167 9 67 -31 148 -90 183 -46 27 -127 33 -176 14z"/>
<path d="M3953 3356 c-217 -55 -355 -230 -340 -432 7 -93 42 -167 107 -228 64
-60 147 -99 280 -131 175 -42 191 -47 221 -73 41 -34 41 -93 -1 -132 -92 -86
-283 -26 -306 95 -3 19 -7 35 -8 35 -6 0 -283 -51 -304 -55 -20 -5 -23 -10
-17 -38 14 -67 65 -158 118 -211 96 -97 234 -146 406 -146 225 0 389 88 465
250 26 55 32 79 34 155 5 116 -18 182 -89 260 -84 91 -161 126 -373 169 -125
25 -164 45 -180 90 -37 101 140 174 243 99 21 -16 59 -73 73 -114 2 -4 64 3
138 17 199 36 179 27 168 76 -14 66 -48 128 -97 181 -52 56 -103 88 -187 118
-75 27 -272 35 -351 15z"/>
<path d="M4782 2569 l3 -801 189 -104 c104 -57 190 -104 192 -104 2 0 4 130 4
288 l0 288 75 -37 c87 -42 160 -59 256 -59 229 0 439 136 542 351 140 289 83
613 -143 822 -115 106 -244 157 -400 157 -99 0 -180 -19 -262 -60 -32 -17 -61
-30 -63 -30 -3 0 -5 20 -5 45 l0 45 -195 0 -195 0 2 -801z m786 420 c90 -45
140 -114 162 -225 30 -151 -64 -318 -201 -358 -66 -20 -92 -20 -159 0 -73 21
-148 97 -179 179 -30 79 -26 197 8 265 77 152 229 210 369 139z"/>
<path d="M6710 3355 c-182 -50 -351 -185 -428 -345 -23 -47 -49 -112 -57 -145
-19 -77 -19 -243 0 -320 46 -183 181 -352 345 -433 118 -58 200 -75 330 -69
284 12 512 181 607 452 25 72 28 93 27 210 0 115 -3 140 -27 212 -65 195 -233
362 -427 425 -86 28 -289 35 -370 13z m240 -346 c68 -21 132 -78 170 -153 32
-62 35 -77 35 -150 -1 -96 -29 -170 -89 -229 -60 -60 -110 -81 -191 -81 -83 0
-152 30 -205 90 -57 66 -75 117 -75 219 0 78 4 97 28 147 63 129 200 195 327
157z"/>
<path d="M8730 2706 l0 -666 190 0 190 0 0 563 0 562 -128 69 c-70 38 -155 85
-189 104 l-63 34 0 -666z"/>
<path d="M9360 2530 l0 -490 195 0 195 0 -2 387 -3 388 -185 102 c-102 56
-188 103 -192 103 -5 0 -8 -220 -8 -490z"/>
</g>
</svg>
